# xmcd
#
# Track frame offsets: 
#        150
#        33046
#        66372
#        79940
#        107664
#        139767
#        184556
#        207750
#        248873
#        281737
#        314074
#
# Disc length: 4388 seconds
#
# Revision: 0
# Processed by: cddbd v1.5.2PL0 Copyright (c) Steve Scherf et al.
# Submitted via: ExactAudioCopy v1.0b3
#
DISCID=9d11220b
DTITLE=Various Artist - The Best In Vocal Trance Vol. 1 - CD 3
DYEAR=1900
DGENRE=
TTITLE0=Perpetual Feat. Fisher - Innocent (Original Mix)
TTITLE1=Andrew Bennett and Rico Soarez - Face The Truth (Feat. Jenry)
TTITLE2=Kindervater Feat. Nadja - Everytime You Need Me (Rocco and Bass-
TTITLE2=T Rmx Edit)
TTITLE3=Ozi Meets Tom Mountain - Dreams (Will Come Alive) (Club Mix)
TTITLE4=Kyau Vs. Albert - 7Skies (Club Mix)
TTITLE5=DJ Cosmo Feat. Estelle Navarre - Free To Run (Original Mix)
TTITLE6=Stephanie O' Hara - Come Back And Stay (Weatherstorm ChiTrance
TTITLE6=Rmx)
TTITLE7=Charles McThorn Feat. Elles De Graaf - Winds Will Turn (Global
TTITLE7=Experience Rmx)
TTITLE8=Sunshine Live Inc. - The Sound Of Revolution (We Are One) (Voc
TTITLE8=al Club Mix)
TTITLE9=Niels Van Gogh - Try To Believe (Citric and Rossi Rmx)
TTITLE10=Rushroom Feat. Fara - Better Off Alone (Radio Edit)
EXTD=
EXTT0=
EXTT1=
EXTT2=
EXTT3=
EXTT4=
EXTT5=
EXTT6=
EXTT7=
EXTT8=
EXTT9=
EXTT10=
PLAYORDER=
